<?xml version="1.0" encoding="UTF-8"?>
<svg width="94px" height="108px" viewBox="0 0 94 108" version="1.1" xmlns="http://www.w3.org/2000/svg" xmlns:xlink="http://www.w3.org/1999/xlink">
    <!-- Generator: Sketch 42 (36781) - http://www.bohemiancoding.com/sketch -->
    <title>Group 26</title>
    <desc>Created with Sketch.</desc>
    <defs></defs>
    <g id="Home" stroke="none" stroke-width="1" fill="none" fill-rule="evenodd" stroke-linecap="round" stroke-linejoin="round">
        <g id="Homepage_BoldFont-Copy" transform="translate(-588.000000, -1791.000000)" stroke-width="4" stroke="#FFFFFF">
            <g id="Group-4-Copy-3" transform="translate(-714.000000, 735.000000)">
                <g id="Features" transform="translate(913.000000, 924.000000)">
                    <g id="Group-26" transform="translate(391.000000, 134.000000)">
                        <g id="Page-1">
                            <polyline id="Stroke-1" points="48.3074265 44.8010763 0 44.8010763 0 0 76.2829137 0 76.2829137 44.8010763 63.5640092 44.8010763"></polyline>
                            <g id="Group-7" transform="translate(26.638478, 9.686719)">
                                <polygon id="Stroke-3" points="11.9820266 94.2847995 45.0388487 94.2847995 45.0388487 78.9953725 11.9820266 78.9953725"></polygon>
                                <path d="M50.1245137,23.1629722 L50.1245137,37.262372 L41.2195143,48.416009 L37.4103513,48.416009 L37.4103513,45.8677712 L37.4103513,33.1265821 C37.4103513,28.904152 33.9953273,25.4818686 29.7818539,25.4818686 C25.5683805,25.4818686 22.1533565,28.904152 22.1533565,33.1265821 L22.1533565,44.4815298 L15.0105401,63.5703793 C14.6876003,64.4265872 14.5248591,65.3388564 14.5248591,66.2536738 L14.5248591,78.9948629 L42.4960162,78.9948629 L42.4960162,67.2143594 L61.4452038,43.4775241 C62.3479093,42.3486547 62.838676,40.9445757 62.838676,39.4971766 L62.838676,21.6595119 C62.838676,20.6733438 62.6072783,19.6973687 62.1673682,18.810582 L54.5388708,3.52115502 L54.505814,3.53899269 C54.2032169,2.92996385 53.8243349,2.35151386 53.3437396,1.8622522 C52.4613767,1.00094782 51.3425304,0.399563691 50.1397707,0.142191671" id="Stroke-5"></path>
                                <path d="M0.539280482,11.4670702 C0.539280482,5.13724745 5.66308791,0 11.9820266,0 C18.3035081,0 23.4247727,5.13724745 23.4247727,11.4670702 C23.4247727,17.8019894 18.3035081,22.9341404 11.9820266,22.9341404 C5.66308791,22.9341404 0.539280482,17.8019894 0.539280482,11.4670702 Z" id="Stroke-6"></path>
                            </g>
                        </g>
                    </g>
                </g>
            </g>
        </g>
    </g>
</svg>