<?xml version="1.0" encoding="UTF-8"?>
<svg width="85px" height="327px" viewBox="0 0 85 327" version="1.1" xmlns="http://www.w3.org/2000/svg" xmlns:xlink="http://www.w3.org/1999/xlink">
    <!-- Generator: Sketch 42 (36781) - http://www.bohemiancoding.com/sketch -->
    <title>Page 1 Copy</title>
    <desc>Created with Sketch.</desc>
    <defs></defs>
    <g id="Home" stroke="none" stroke-width="1" fill="none" fill-rule="evenodd" opacity="0.200000003">
        <g id="Homepage_BoldFont" transform="translate(0.000000, -219.000000)">
            <g id="Group">
                <g id="Group-37">
                    <g id="Page-1-Copy" transform="translate(-760.000000, -281.000000)">
                        <polyline id="Stroke-12" stroke="#FFFFFF" stroke-width="2" points="839.9997 779.2523 709.9997 854.3633 579.9997 779.2523"></polyline>
                        <polyline id="Stroke-13" stroke="#FFFFFF" stroke-width="2" points="799.9996 756.1669 799.9996 652.1669 709.9996 600.1669 619.9996 652.1669 619.9996 872.4369 529.9996 924.4369 439.9996 872.4369 439.9996 768.4369"></polyline>
                        <polyline id="Stroke-14" stroke="#FFFFFF" stroke-width="2" points="639.9997 663.7098 709.9997 623.2648 779.9997 663.7098"></polyline>
                        <polyline id="Stroke-26" stroke="#FFFFFF" stroke-width="2" points="709.9997 473.0685 839.9997 548.1795 839.9997 698.3505 709.9997 773.4625"></polyline>
                        <polyline id="Stroke-27" stroke="#FFFFFF" stroke-width="2" points="619.9998 675.2652 709.9998 727.2652 799.9998 675.2652 799.9998 571.2652 709.9998 519.2652"></polyline>
                        <polyline id="Stroke-28" stroke="#FFFFFF" stroke-width="2" points="779.9997 582.8082 779.9997 663.7222 709.9997 704.1672 639.9997 663.7222"></polyline>
                        <g id="Group-139" transform="translate(35.000000, 0.500000)" fill="#FFFFFF">
                            <path d="M749.9997,582.3082 C749.9997,585.0702 747.7607,587.3082 744.9997,587.3082 C742.2387,587.3082 739.9997,585.0702 739.9997,582.3082 C739.9997,579.5472 742.2387,577.3082 744.9997,577.3082 C747.7607,577.3082 749.9997,579.5472 749.9997,582.3082" id="Fill-103"></path>
                            <path d="M769.9998,755.8082 C769.9998,758.5692 767.7608,760.8082 764.9998,760.8082 C762.2388,760.8082 759.9998,758.5692 759.9998,755.8082 C759.9998,753.0472 762.2388,750.8082 764.9998,750.8082 C767.7608,750.8082 769.9998,753.0472 769.9998,755.8082" id="Fill-105"></path>
                            <path d="M809.9997,778.7523 C809.9997,781.5133 807.7607,783.7523 804.9997,783.7523 C802.2387,783.7523 799.9997,781.5133 799.9997,778.7523 C799.9997,775.9913 802.2387,773.7523 804.9997,773.7523 C807.7607,773.7523 809.9997,775.9913 809.9997,778.7523" id="Fill-107"></path>
                        </g>
                    </g>
                </g>
            </g>
        </g>
    </g>
</svg>