<?xml version="1.0" encoding="UTF-8"?>
<svg width="199px" height="613px" viewBox="0 0 199 613" version="1.1" xmlns="http://www.w3.org/2000/svg" xmlns:xlink="http://www.w3.org/1999/xlink">
    <!-- Generator: Sketch 42 (36781) - http://www.bohemiancoding.com/sketch -->
    <title>Page 1</title>
    <desc>Created with Sketch.</desc>
    <defs></defs>
    <g id="Home" stroke="none" stroke-width="1" fill="none" fill-rule="evenodd" opacity="0.200000003">
        <g id="Homepage_BoldFont" transform="translate(-1081.000000, -1877.000000)">
            <g id="Group-4-Copy-3" transform="translate(-714.000000, 690.000000)">
                <g id="Page-1" transform="translate(1796.000000, 997.000000)">
                    <polyline id="Stroke-18" stroke="#FFFFFF" stroke-width="2" points="179.9997 201.6667 309.9997 126.5557 439.9997 201.6667"></polyline>
                    <polyline id="Stroke-21" stroke="#FFFFFF" stroke-width="2" points="179.9997 386.5685 309.9997 311.4575 439.9997 386.5685"></polyline>
                    <polyline id="Stroke-33" stroke="#FFFFFF" stroke-width="2" points="349.9998 738.8078 219.9998 813.9188 89.9998 738.8078 89.9998 588.6368 219.9998 513.5258"></polyline>
                    <polyline id="Stroke-34" stroke="#FFFFFF" stroke-width="2" points="289.9998 704.1794 219.9998 744.6244 149.9998 704.1794 149.9998 623.2654"></polyline>
                    <polyline id="Stroke-35" stroke="#FFFFFF" stroke-width="2" points="130 681.1458 0 606.0348 0 455.8638 130 380.7518"></polyline>
                    <polyline id="Stroke-37" stroke="#FFFFFF" stroke-width="2" points="220.0001 582.9489 220.0001 478.9489 130.0001 426.9489 40.0001 478.9489 40.0001 582.9489"></polyline>
                    <polyline id="Stroke-38" stroke="#FFFFFF" stroke-width="2" points="60 490.4919 130 450.0469 200 490.4919 200 571.4059 130 611.8509 130 715.7219 220 767.7219 310 715.7219 310 693.3139"></polyline>
                    <g id="Group-139" transform="translate(35.000000, 0.500000)" fill="#FFFFFF">
                        <path d="M100,380.2521 C100,383.0131 97.761,385.2521 95,385.2521 C92.239,385.2521 90,383.0131 90,380.2521 C90,377.4911 92.239,375.2521 95,375.2521 C97.761,375.2521 100,377.4911 100,380.2521" id="Fill-39"></path>
                        <path d="M10.0001,582.4489 C10.0001,585.2099 7.7611,587.4489 5.0001,587.4489 C2.2391,587.4489 0.0001,585.2099 0.0001,582.4489 C0.0001,579.6869 2.2391,577.4489 5.0001,577.4489 C7.7611,577.4489 10.0001,579.6869 10.0001,582.4489" id="Fill-41"></path>
                        <path d="M30,489.7822 C30,492.5432 27.761,494.7822 25,494.7822 C22.238,494.7822 20,492.5432 20,489.7822 C20,487.0212 22.238,484.7822 25,484.7822 C27.761,484.7822 30,487.0212 30,489.7822" id="Fill-43"></path>
                        <path d="M119.9998,622.7654 C119.9998,625.5264 117.7618,627.7654 114.9998,627.7654 C112.2388,627.7654 109.9998,625.5264 109.9998,622.7654 C109.9998,620.0044 112.2388,617.7654 114.9998,617.7654 C117.7618,617.7654 119.9998,620.0044 119.9998,622.7654" id="Fill-49"></path>
                        <path d="M149.9997,386.0685 C149.9997,388.8295 147.7607,391.0685 144.9997,391.0685 C142.2387,391.0685 139.9997,388.8295 139.9997,386.0685 C139.9997,383.3075 142.2387,381.0685 144.9997,381.0685 C147.7607,381.0685 149.9997,383.3075 149.9997,386.0685" id="Fill-113"></path>
                        <path d="M149.9997,201.1667 C149.9997,203.9277 147.7607,206.1667 144.9997,206.1667 C142.2387,206.1667 139.9997,203.9277 139.9997,201.1667 C139.9997,198.4057 142.2387,196.1667 144.9997,196.1667 C147.7607,196.1667 149.9997,198.4057 149.9997,201.1667" id="Fill-115"></path>
                    </g>
                </g>
            </g>
        </g>
    </g>
</svg>