<?xml version="1.0" encoding="UTF-8"?>
<svg width="107px" height="107px" viewBox="0 0 107 107" version="1.1" xmlns="http://www.w3.org/2000/svg" xmlns:xlink="http://www.w3.org/1999/xlink">
    <!-- Generator: Sketch 42 (36781) - http://www.bohemiancoding.com/sketch -->
    <title>Group 27</title>
    <desc>Created with Sketch.</desc>
    <defs></defs>
    <g id="Home" stroke="none" stroke-width="1" fill="none" fill-rule="evenodd">
        <g id="Homepage_BoldFont-Copy" transform="translate(-908.000000, -1792.000000)">
            <g id="Group-4-Copy-3" transform="translate(-714.000000, 735.000000)">
                <g id="Features" transform="translate(913.000000, 924.000000)">
                    <g id="Group-27" transform="translate(710.000000, 134.000000)">
                        <path d="M52.5,98 L25.6441568,98 L25.6441568,102.666667 C25.6441568,103.957 24.6020715,105 23.3128698,105 L9.32514793,105 C8.03594622,105 6.99386094,103.957 6.99386094,102.666667 L6.99386094,97.6686667 C2.98171605,96.6256667 0,93.002 0,88.6666667 L0,9.33333333 C0,4.186 4.18232884,0 9.32514793,0 L95.5827662,0 C100.725585,0 104.907914,4.186 104.907914,9.33333333 L105,9.33333333 L105,88.6666667 C105,93.002 102.018284,96.6256667 98.0061391,97.6686667 L98.0061391,102.666667 C98.0061391,103.957 96.9640538,105 95.6748521,105 L81.6871302,105 C80.3979285,105 79.3558432,103.957 79.3558432,102.666667 L79.3558432,98 L52.5,98 Z M100.337426,66.032778 C100.306778,66.0133785 100.276083,65.9925817 100.24534,65.9703333 L100.24534,9.33333333 C100.24534,6.75966667 98.1518445,4.66666667 95.5827662,4.66666667 L9.32514793,4.66666667 C6.75373839,4.66666667 4.66257396,6.75966667 4.66257396,9.33333333 L4.66257396,88.6666667 C4.66257396,91.238 6.75373839,93.3333333 9.32514793,93.3333333 L11.6564349,93.3333333 L11.6564349,95.6666667 L11.6564349,98 L11.6564349,100.333333 L20.9815828,100.333333 L20.9815828,98 L20.9815828,95.6666667 L20.9815828,93.3333333 L40.8435651,93.3333333 L84.0184172,93.3333333 L84.0184172,95.6666667 L84.0184172,98 L84.0184172,100.333333 L93.3435651,100.333333 L93.3435651,98 L93.3435651,95.6666667 L93.3435651,93.3333333 L95.6748521,93.3333333 C98.2439303,93.3333333 100.337426,91.238 100.337426,88.6666667 L100.337426,66.032778 Z M86.2571521,32.6666667 L81.5945781,32.6666667 L81.5945781,28 L86.2571521,28 L86.2571521,18.6666667 L18.6498296,18.6666667 L18.6498296,79.3333333 L44.7159493,79.3333333 C44.711823,79.3575923 44.7077209,79.3818589 44.7036435,79.4061333 L86.2571521,79.4061333 L86.2571521,69.8063333 L81.5945781,69.8063333 L81.5945781,65.1396667 L86.2571521,65.1396667 L86.2571521,32.6666667 Z M90.919726,16.4346 L90.9766094,16.4061333 L90.9766094,28 L95.5823,28 L95.5823,32.6666667 L90.9766094,32.6666667 L90.9766094,65.1396667 L95.5823,65.1396667 L95.5823,69.8063333 L90.9766094,69.8063333 L90.9766094,81.7394667 C90.9766094,81.9166406 90.9569623,82.0891514 90.919726,82.2549393 L90.919726,82.5883333 C90.8885488,82.5802432 90.8573536,82.5731947 90.8261406,82.567147 C90.4930184,83.4479246 89.6431958,84.0728 88.6453224,84.0728 L86.8632671,84.0728 C86.6619721,84.1170225 86.4599369,84.1355684 86.2571521,84.119 L86.2571521,84.0728 L37.3570088,84.0728 C37.3570088,84.0485236 37.356971,84.0242569 37.3568955,84 L16.3185426,84 C15.0293409,84 13.9872556,82.957 13.9872556,81.6666667 L13.9872556,16.3333333 C13.9872556,15.043 15.0293409,14 16.3185426,14 L88.588439,14 C89.8776407,14 90.919726,15.043 90.919726,16.3333333 L90.919726,16.4346 Z M27.9749775,65.3333333 C26.6857758,65.3333333 25.6436905,64.2903333 25.6436905,63 L25.6436905,35 C25.6436905,33.7096667 26.6857758,32.6666667 27.9749775,32.6666667 C29.2641792,32.6666667 30.3062645,33.7096667 30.3062645,35 L30.3062645,63 C30.3062645,64.2903333 29.2641792,65.3333333 27.9749775,65.3333333 Z M47.7909169,59.5 C42.0069939,59.5 37.3001254,54.789 37.3001254,49 C37.3001254,43.211 42.0069939,38.5 47.7909169,38.5 C53.5748399,38.5 58.2817083,43.211 58.2817083,49 C58.2817083,54.789 53.5748399,59.5 47.7909169,59.5 Z M47.7909169,43.1666667 C44.5760721,43.1666667 41.9626994,45.7823333 41.9626994,49 C41.9626994,52.2176667 44.5760721,54.8333333 47.7909169,54.8333333 C51.0057616,54.8333333 53.6191343,52.2176667 53.6191343,49 C53.6191343,45.7823333 51.0057616,43.1666667 47.7909169,43.1666667 Z" id="Combined-Shape" stroke="#00A4DE" stroke-width="0.5" fill="#FFFFFF"></path>
                        <polygon id="Path-2" opacity="0.200000003" points="103.073394 87.9640197 102.041884 8.13313538 96.8136818 0.963302752 7.08642279 1.09747231 1.72162762 8.11195072 0.963302752 86.2292309 4.53826284 94.2723426 8.71846978 96.9533798 9.16592855 103.073394 23.1808083 101.286821 24.0757258 96.6426713 82.798802 95.7482076 82.3513433 102.451978 95.1816348 101.849392 96.3874184 95.5716688"></polygon>
                    </g>
                </g>
            </g>
        </g>
    </g>
</svg>