<?xml version="1.0" encoding="UTF-8"?>
<svg width="221px" height="394px" viewBox="0 0 221 394" version="1.1" xmlns="http://www.w3.org/2000/svg" xmlns:xlink="http://www.w3.org/1999/xlink">
    <!-- Generator: Sketch 42 (36781) - http://www.bohemiancoding.com/sketch -->
    <title>Page 1</title>
    <desc>Created with Sketch.</desc>
    <defs></defs>
    <g id="Home" stroke="none" stroke-width="1" fill="none" fill-rule="evenodd" opacity="0.200000003">
        <g id="Homepage_BoldFont" transform="translate(-1059.000000, -276.000000)">
            <g id="Group">
                <g id="Group-37">
                    <g id="Page-1" transform="translate(1003.000000, 248.000000)">
                        <polyline id="Stroke-11" stroke="#FFFFFF" stroke-width="2" points="239.9997 132.1527 239.9997 51.2387 309.9997 10.7937 379.9997 51.2387"></polyline>
                        <polyline id="Stroke-18" stroke="#FFFFFF" stroke-width="2" points="179.9997 201.6667 309.9997 126.5557 439.9997 201.6667"></polyline>
                        <polyline id="Stroke-19" stroke="#FFFFFF" stroke-width="2" points="219.9998 224.7521 219.9998 328.7521 309.9998 380.7521 399.9998 328.7521 399.9998 224.7521"></polyline>
                        <polyline id="Stroke-21" stroke="#FFFFFF" stroke-width="2" points="179.9997 386.5685 309.9997 311.4575 439.9997 386.5685"></polyline>
                        <polyline id="Stroke-22" stroke="#FFFFFF" stroke-width="2" points="219.9998 409.6539 219.9998 513.6539 309.9998 565.6539 399.9998 513.6539 399.9998 409.6539"></polyline>
                        <polyline id="Stroke-23" stroke="#FFFFFF" stroke-width="2" points="309.9997 380.7521 379.9997 421.1971 379.9997 502.1111 309.9997 542.5561 239.9997 502.1111"></polyline>
                        <polyline id="Stroke-35" stroke="#FFFFFF" stroke-width="2" points="130 681.1458 0 606.0348 0 455.8638 130 380.7518"></polyline>
                        <g id="Group-139" transform="translate(35.000000, 0.500000)" fill="#FFFFFF">
                            <path d="M100,380.2521 C100,383.0131 97.761,385.2521 95,385.2521 C92.239,385.2521 90,383.0131 90,380.2521 C90,377.4911 92.239,375.2521 95,375.2521 C97.761,375.2521 100,377.4911 100,380.2521" id="Fill-39"></path>
                            <path d="M149.9997,386.0685 C149.9997,388.8295 147.7607,391.0685 144.9997,391.0685 C142.2387,391.0685 139.9997,388.8295 139.9997,386.0685 C139.9997,383.3075 142.2387,381.0685 144.9997,381.0685 C147.7607,381.0685 149.9997,383.3075 149.9997,386.0685" id="Fill-113"></path>
                            <path d="M149.9997,201.1667 C149.9997,203.9277 147.7607,206.1667 144.9997,206.1667 C142.2387,206.1667 139.9997,203.9277 139.9997,201.1667 C139.9997,198.4057 142.2387,196.1667 144.9997,196.1667 C147.7607,196.1667 149.9997,198.4057 149.9997,201.1667" id="Fill-115"></path>
                            <path d="M214.9997,51.1667 C214.9997,56.6897 210.5227,61.1667 204.9997,61.1667 C199.4767,61.1667 194.9997,56.6897 194.9997,51.1667 C194.9997,45.6437 199.4767,41.1667 204.9997,41.1667 C210.5227,41.1667 214.9997,45.6437 214.9997,51.1667" id="Fill-121"></path>
                            <path d="M190.0001,409.1539 C190.0001,411.9159 187.7611,414.1539 185.0001,414.1539 C182.2391,414.1539 180.0001,411.9159 180.0001,409.1539 C180.0001,406.3929 182.2391,404.1539 185.0001,404.1539 C187.7611,404.1539 190.0001,406.3929 190.0001,409.1539" id="Fill-135"></path>
                        </g>
                    </g>
                </g>
            </g>
        </g>
    </g>
</svg>