<?xml version="1.0" encoding="UTF-8"?>
<svg width="105px" height="105px" viewBox="0 0 105 105" version="1.1" xmlns="http://www.w3.org/2000/svg" xmlns:xlink="http://www.w3.org/1999/xlink">
    <!-- Generator: Sketch 42 (36781) - http://www.bohemiancoding.com/sketch -->
    <title>Page 1</title>
    <desc>Created with Sketch.</desc>
    <defs></defs>
    <g id="Home" stroke="none" stroke-width="1" fill="none" fill-rule="evenodd">
        <g id="Homepage_BoldFont-Copy" transform="translate(-271.000000, -1793.000000)" fill="#FFFFFF">
            <g id="Group-4-Copy-3" transform="translate(-714.000000, 735.000000)">
                <g id="Features" transform="translate(913.000000, 924.000000)">
                    <g id="Page-1" transform="translate(72.000000, 134.000000)">
                        <path d="M9.31065897,49.6449438 C6.74557243,49.6449438 4.65532949,51.803791 4.65532949,54.458427 L4.65532949,95.3730337 C4.65532949,98.0276697 6.74557243,100.186517 9.31065897,100.186517 L76.8129365,100.186517 C79.3803507,100.186517 81.468266,98.0276697 81.468266,95.3730337 L81.468266,54.458427 C81.468266,51.803791 79.3803507,49.6449438 76.8129365,49.6449438 L9.31065897,49.6449438 Z M76.8129365,105 L9.31065897,105 C4.17583055,105 0,100.682306 0,95.3730337 L0,54.458427 C0,49.1491551 4.17583055,44.8314607 9.31065897,44.8314607 L76.8129365,44.8314607 C81.947765,44.8314607 86.1235955,49.1491551 86.1235955,54.458427 L86.1235955,95.3730337 C86.1235955,100.682306 81.947765,105 76.8129365,105 Z" id="Fill-1"></path>
                        <path d="M83.7959308,67.247191 L2.32766474,67.247191 C1.04046614,67.247191 0,66.454382 0,65.4775281 C0,64.5006742 1.04046614,63.7078652 2.32766474,63.7078652 L83.7959308,63.7078652 C85.0831294,63.7078652 86.1235955,64.5006742 86.1235955,65.4775281 C86.1235955,66.454382 85.0831294,67.247191 83.7959308,67.247191" id="Fill-3"></path>
                        <polygon id="Fill-5" points="38.9325843 83.7640449 47.1910112 83.7640449 47.1910112 80.2247191 38.9325843 80.2247191"></polygon>
                        <polygon id="Fill-7" points="14.1573034 83.7640449 30.6741573 83.7640449 30.6741573 80.2247191 14.1573034 80.2247191"></polygon>
                        <path d="M90.3866134,6.26242226 C89.0062683,2.51591803 85.3526977,0 81.2961243,0 C80.1764038,0 79.0711625,0.190419529 78.014185,0.571258587 L12.2523272,24.1785197 C9.83672333,25.0473088 7.90375764,26.794408 6.81299547,29.105625 C5.71982012,31.416842 5.60398697,33.9994069 6.48238836,36.3820313 L7.2449566,38.4480832 L12.3802263,38.4480832 L11.0167736,34.7563245 C10.579986,33.5662025 10.6403158,32.2761102 11.1881101,31.1169313 C11.7334912,29.9601326 12.6987674,29.0842028 13.9029495,28.6533786 L79.6648074,5.04373727 C80.190883,4.85569799 80.7410904,4.76048823 81.2961243,4.76048823 C83.330444,4.76048823 85.1620557,6.01725712 85.8522282,7.89050923 L89.1510598,16.8354666 L28.9516063,38.4480832 L43.0591187,38.4480832 L90.8040954,21.3079453 L99.8825185,45.9172892 C100.319306,47.1026507 100.258976,48.3951233 99.711182,49.5519219 C99.1658009,50.7087206 98.2005246,51.5846504 96.9963425,52.0178548 L94.9716756,52.7438293 L94.9716756,57.8089888 L98.6469649,56.4903335 C101.062569,55.6239247 102.995534,53.8744452 104.086297,51.5632282 C105.179472,49.2543914 105.295305,46.6694463 104.414491,44.2892022 L90.3866134,6.26242226 Z" id="Fill-8"></path>
                    </g>
                </g>
            </g>
        </g>
    </g>
</svg>